:SAMPLES-PER-SECOND 30
:FULLY-SPECIFIED
:DEGREES
303
root  11.0126 38.5407 5.18756 -11.1567 68.7891 -10.9042
RightUpLeg  -19.5324 -20.1409 6.62727
RightLeg  31.4032 -4.43531 -3.17749
RightFoot  -11.0109 -0.0554643 -6.63783
RightToes  0.00048216 0.542163 -0.142577
Spine  17.9428 -3.52409 10.9727
Spine1  9.42307 -0.949912 -1.5781
HEad  2.2123 4.31104 -3.36389
LeftShoulder1  9.63963 -14.0858 -47.8385
LeftArm  -8.93826 16.2293 -24.2152
LeftForeArm  22.4185 -27.5207 -4.71888
LeftHand  -0.25398 0.0180481 5.50724
RightShoulder  5.97061 10.5917 36.3664
RightArm  -10.6574 -13.8166 35.4985
RightForeArm  7.46273 7.27088 6.37323
RightHand  -1.03204 1.66248 -17.0926
LeftUpLeg  -6.03285 9.1318 10.9931
LeftLeg  59.2874 3.59235 7.09837
LeftFoot  8.47895 0.197111 -1.47809
LeftToes  1.06248e-005 4.65855e-005 -8.185e-006
304
root  12.2027 38.8122 5.97303 -9.65253 67.6312 -9.02923
RightUpLeg  -15.8578 -19.4601 5.7353
RightLeg  29.8363 -4.11982 -2.81438
RightFoot  -12.3793 -0.142443 -6.50464
RightToes  0.00048216 0.542163 -0.142577
Spine  17.9362 -3.02837 10.466
Spine1  10.0621 -0.415556 -1.8477
HEad  2.77631 4.75566 -3.26882
LeftShoulder1  9.70462 -14.0621 -48.2303
LeftArm  -7.5591 16.6636 -24.4508
LeftForeArm  22.947 -26.3061 -4.42174
LeftHand  -0.25398 0.0180481 5.50724
RightShoulder  6.04444 10.6249 36.7784
RightArm  -9.14451 -9.63917 35.0965
RightForeArm  8.17988 7.82604 6.81092
RightHand  -1.12316 2.27482 -17.1459
LeftUpLeg  -11.4559 8.57171 9.0987
LeftLeg  62.1246 1.66571 4.08351
LeftFoot  5.15023 0.575085 -4.18775
LeftToes  1.06248e-005 4.65855e-005 -8.185e-006
305
root  13.4142 39.0576 6.75115 -7.9126 66.5485 -7.18191
RightUpLeg  -12.3553 -19.2299 4.72623
RightLeg  27.995 -3.48627 -2.23495
RightFoot  -13.5475 -0.21278 -6.288
RightToes  0.00048216 0.542163 -0.142577
Spine  17.6572 -2.49622 10.0363
Spine1  10.2737 0.135807 -2.33985
HEad  3.52346 5.07294 -3.40756
LeftShoulder1  9.78956 -14.109 -48.5261
LeftArm  -6.34875 17.434 -24.547
LeftForeArm  23.2716 -25.3036 -4.18742
LeftHand  -0.25398 0.0180481 5.50724
RightShoulder  5.99869 10.5092 36.8039
RightArm  -7.56732 -5.53361 35.3067
RightForeArm  8.34685 8.87485 7.16049
RightHand  -1.2167 2.72826 -17.5493
LeftUpLeg  -16.5506 8.50999 6.9673
LeftLeg  61.6218 1.80098 4.19371
LeftFoot  2.47512 0.590443 -4.93781
LeftToes  1.06248e-005 4.65855e-005 -8.185e-006
306
root  14.6561 39.2759 7.5233 -6.39759 65.3544 -5.62756
RightUpLeg  -8.69852 -18.5705 3.51319
RightLeg  25.8485 -3.07892 -1.4
RightFoot  -14.6273 -0.273037 -6.06889
RightToes  0.00048216 0.542163 -0.142577
Spine  17.149 -1.92223 9.98474
Spine1  10.5039 0.873492 -3.46313
HEad  4.15781 5.20649 -3.64892
LeftShoulder1  9.82133 -14.1941 -48.449
LeftArm  -5.59288 18.2938 -24.7566
LeftForeArm  23.2086 -24.5267 -4.02502
LeftHand  -0.25398 0.0180481 5.50724
RightShoulder  5.91088 10.4303 36.4275
RightArm  -5.57744 -1.91887 36.1143
RightForeArm  6.8785 10.8345 7.32003
RightHand  -1.31342 3.21413 -17.8893
LeftUpLeg  -20.7783 9.06786 4.7914
LeftLeg  58.0426 2.90294 5.53132
LeftFoot  0.100529 0.296729 -2.96179
LeftToes  1.06248e-005 4.65855e-005 -8.185e-006
307
root  15.9081 39.4532 8.30189 -4.83686 64.0295 -3.89104
RightUpLeg  -4.76807 -16.4606 1.95009
RightLeg  23.4175 -3.69696 -0.412494
RightFoot  -15.7059 -0.317892 -5.56585
RightToes  0.00048216 0.542163 -0.142577
Spine  16.5828 -1.23823 9.77726
Spine1  10.9774 1.76222 -4.86214
HEad  4.54934 5.26531 -3.91895
LeftShoulder1  9.80271 -14.2616 -48.1707
LeftArm  -5.02983 19.0273 -24.8962
LeftForeArm  22.7289 -23.9338 -3.92651
LeftHand  -0.25398 0.0180481 5.50724
RightShoulder  5.84848 10.4358 35.9743
RightArm  -2.47791 1.42292 37.0041
RightForeArm  3.64897 13.5238 7.16053
RightHand  -1.38431 3.6612 -17.9387
LeftUpLeg  -23.7687 10.2112 2.70542
LeftLeg  51.4972 3.68425 5.43191
LeftFoot  -2.22698 0.199332 -2.3841
LeftToes  1.06248e-005 4.65855e-005 -8.185e-006
